<mxfile host="app.diagrams.net" agent="Mozilla/5.0 (Macintosh; Intel Mac OS X 10_15_7) AppleWebKit/537.36 (KHTML, like Gecko) Chrome/140.0.0.0 Safari/537.36" version="28.2.0">
  <diagram name="Page-1" id="KoH1mqqme472GJqEIVVy">
    <mxGraphModel dx="2276" dy="806" grid="1" gridSize="10" guides="1" tooltips="1" connect="1" arrows="1" fold="1" page="1" pageScale="1" pageWidth="850" pageHeight="1100" math="0" shadow="0">
      <root>
        <mxCell id="0" />
        <mxCell id="1" parent="0" />
        <mxCell id="FjL0w2o_nrzGvol7VrGl-9" value="" style="rounded=0;whiteSpace=wrap;html=1;fillColor=#dae8fc;strokeColor=#6c8ebf;strokeWidth=2;" parent="1" vertex="1">
          <mxGeometry x="640" y="120" width="480" height="400" as="geometry" />
        </mxCell>
        <mxCell id="FjL0w2o_nrzGvol7VrGl-1" value="AWS Cloud" style="points=[[0,0],[0.25,0],[0.5,0],[0.75,0],[1,0],[1,0.25],[1,0.5],[1,0.75],[1,1],[0.75,1],[0.5,1],[0.25,1],[0,1],[0,0.75],[0,0.5],[0,0.25]];outlineConnect=0;html=1;whiteSpace=wrap;fontSize=12;fontStyle=0;container=1;pointerEvents=0;collapsible=0;recursiveResize=0;shape=mxgraph.aws4.group;grIcon=mxgraph.aws4.group_aws_cloud_alt;strokeColor=#d79b00;fillColor=#ffe6cc;verticalAlign=top;align=left;spacingLeft=30;dashed=0;strokeWidth=2;" parent="1" vertex="1">
          <mxGeometry x="-120" y="160" width="640" height="360" as="geometry" />
        </mxCell>
        <mxCell id="FjL0w2o_nrzGvol7VrGl-3" value="Region" style="points=[[0,0],[0.25,0],[0.5,0],[0.75,0],[1,0],[1,0.25],[1,0.5],[1,0.75],[1,1],[0.75,1],[0.5,1],[0.25,1],[0,1],[0,0.75],[0,0.5],[0,0.25]];outlineConnect=0;html=1;whiteSpace=wrap;fontSize=12;fontStyle=0;container=1;pointerEvents=0;collapsible=0;recursiveResize=0;shape=mxgraph.aws4.group;grIcon=mxgraph.aws4.group_region;strokeColor=#82b366;fillColor=#d5e8d4;verticalAlign=top;align=left;spacingLeft=30;dashed=1;strokeWidth=2;" parent="FjL0w2o_nrzGvol7VrGl-1" vertex="1">
          <mxGeometry x="40" y="40" width="560" height="280" as="geometry" />
        </mxCell>
        <mxCell id="FjL0w2o_nrzGvol7VrGl-4" value="VPC" style="points=[[0,0],[0.25,0],[0.5,0],[0.75,0],[1,0],[1,0.25],[1,0.5],[1,0.75],[1,1],[0.75,1],[0.5,1],[0.25,1],[0,1],[0,0.75],[0,0.5],[0,0.25]];outlineConnect=0;html=1;whiteSpace=wrap;fontSize=12;fontStyle=0;container=1;pointerEvents=0;collapsible=0;recursiveResize=0;shape=mxgraph.aws4.group;grIcon=mxgraph.aws4.group_vpc2;strokeColor=#9673a6;fillColor=#e1d5e7;verticalAlign=top;align=left;spacingLeft=30;dashed=0;strokeWidth=2;" parent="FjL0w2o_nrzGvol7VrGl-3" vertex="1">
          <mxGeometry x="40" y="40" width="468" height="200" as="geometry" />
        </mxCell>
        <mxCell id="FjL0w2o_nrzGvol7VrGl-7" value="VPN Gateway" style="sketch=0;outlineConnect=0;fontColor=#232F3E;gradientColor=none;fillColor=#8C4FFF;strokeColor=none;dashed=0;verticalLabelPosition=bottom;verticalAlign=top;align=center;html=1;fontSize=12;fontStyle=0;aspect=fixed;pointerEvents=1;shape=mxgraph.aws4.vpn_gateway;strokeWidth=2;" parent="FjL0w2o_nrzGvol7VrGl-4" vertex="1">
          <mxGeometry x="448" y="80" width="40" height="40" as="geometry" />
        </mxCell>
        <mxCell id="FjL0w2o_nrzGvol7VrGl-22" value="Private subnet" style="points=[[0,0],[0.25,0],[0.5,0],[0.75,0],[1,0],[1,0.25],[1,0.5],[1,0.75],[1,1],[0.75,1],[0.5,1],[0.25,1],[0,1],[0,0.75],[0,0.5],[0,0.25]];outlineConnect=0;gradientColor=none;html=1;whiteSpace=wrap;fontSize=12;fontStyle=0;container=1;pointerEvents=0;collapsible=0;recursiveResize=0;shape=mxgraph.aws4.group;grIcon=mxgraph.aws4.group_security_group;grStroke=0;strokeColor=#00A4A6;fillColor=#E6F6F7;verticalAlign=top;align=left;spacingLeft=30;fontColor=#147EBA;dashed=0;strokeWidth=2;" parent="FjL0w2o_nrzGvol7VrGl-4" vertex="1">
          <mxGeometry x="240" y="40" width="160" height="130" as="geometry" />
        </mxCell>
        <mxCell id="OsKB0G3abVHmZugpBjLQ-1" value="PostgreSQL Instance" style="sketch=0;outlineConnect=0;fontColor=#232F3E;gradientColor=none;fillColor=#C925D1;strokeColor=none;dashed=0;verticalLabelPosition=bottom;verticalAlign=top;align=center;html=1;fontSize=12;fontStyle=0;aspect=fixed;pointerEvents=1;shape=mxgraph.aws4.rds_instance;strokeWidth=2;" vertex="1" parent="FjL0w2o_nrzGvol7VrGl-22">
          <mxGeometry x="60" y="40" width="40" height="40" as="geometry" />
        </mxCell>
        <mxCell id="OsKB0G3abVHmZugpBjLQ-2" value="Public subnet" style="points=[[0,0],[0.25,0],[0.5,0],[0.75,0],[1,0],[1,0.25],[1,0.5],[1,0.75],[1,1],[0.75,1],[0.5,1],[0.25,1],[0,1],[0,0.75],[0,0.5],[0,0.25]];outlineConnect=0;gradientColor=none;html=1;whiteSpace=wrap;fontSize=12;fontStyle=0;container=1;pointerEvents=0;collapsible=0;recursiveResize=0;shape=mxgraph.aws4.group;grIcon=mxgraph.aws4.group_security_group;grStroke=0;strokeColor=#7AA116;fillColor=#F2F6E8;verticalAlign=top;align=left;spacingLeft=30;fontColor=#248814;dashed=0;strokeWidth=2;" vertex="1" parent="FjL0w2o_nrzGvol7VrGl-4">
          <mxGeometry x="40" y="40" width="160" height="130" as="geometry" />
        </mxCell>
        <mxCell id="FjL0w2o_nrzGvol7VrGl-10" value="Azure Cloud" style="text;html=1;align=center;verticalAlign=middle;whiteSpace=wrap;rounded=0;strokeWidth=2;" parent="1" vertex="1">
          <mxGeometry x="661.21" y="117" width="80" height="30" as="geometry" />
        </mxCell>
        <mxCell id="FjL0w2o_nrzGvol7VrGl-11" value="" style="image;aspect=fixed;html=1;points=[];align=center;fontSize=12;image=img/lib/azure2/other/Azure_A.svg;strokeWidth=2;" parent="1" vertex="1">
          <mxGeometry x="642" y="122" width="21.21" height="20" as="geometry" />
        </mxCell>
        <mxCell id="FjL0w2o_nrzGvol7VrGl-12" value="Region" style="points=[[0,0],[0.25,0],[0.5,0],[0.75,0],[1,0],[1,0.25],[1,0.5],[1,0.75],[1,1],[0.75,1],[0.5,1],[0.25,1],[0,1],[0,0.75],[0,0.5],[0,0.25]];outlineConnect=0;html=1;whiteSpace=wrap;fontSize=12;fontStyle=0;container=1;pointerEvents=0;collapsible=0;recursiveResize=0;shape=mxgraph.aws4.group;grIcon=mxgraph.aws4.group_region;strokeColor=#82b366;fillColor=#d5e8d4;verticalAlign=top;align=left;spacingLeft=30;dashed=1;strokeWidth=2;" parent="1" vertex="1">
          <mxGeometry x="680" y="160" width="400" height="320" as="geometry" />
        </mxCell>
        <mxCell id="FjL0w2o_nrzGvol7VrGl-16" value="" style="rounded=0;whiteSpace=wrap;html=1;fillColor=#e1d5e7;strokeColor=#9673a6;strokeWidth=2;" parent="FjL0w2o_nrzGvol7VrGl-12" vertex="1">
          <mxGeometry x="40" y="79" width="320" height="200" as="geometry" />
        </mxCell>
        <mxCell id="FjL0w2o_nrzGvol7VrGl-17" value="" style="image;aspect=fixed;html=1;points=[];align=center;fontSize=12;image=img/lib/azure2/networking/Virtual_Networks.svg;strokeWidth=2;" parent="FjL0w2o_nrzGvol7VrGl-12" vertex="1">
          <mxGeometry x="42" y="80" width="33.5" height="20" as="geometry" />
        </mxCell>
        <mxCell id="FjL0w2o_nrzGvol7VrGl-18" value="Azure Virtual Network" style="text;html=1;align=center;verticalAlign=middle;whiteSpace=wrap;rounded=0;strokeWidth=2;" parent="FjL0w2o_nrzGvol7VrGl-12" vertex="1">
          <mxGeometry x="75.5" y="75" width="124.5" height="24" as="geometry" />
        </mxCell>
        <mxCell id="FjL0w2o_nrzGvol7VrGl-19" value="" style="image;aspect=fixed;html=1;points=[];align=center;fontSize=12;image=img/lib/azure2/networking/Virtual_Network_Gateways.svg;strokeWidth=2;" parent="FjL0w2o_nrzGvol7VrGl-12" vertex="1">
          <mxGeometry x="27" y="159.09" width="30" height="39.81" as="geometry" />
        </mxCell>
        <mxCell id="OsKB0G3abVHmZugpBjLQ-4" value="" style="rounded=0;whiteSpace=wrap;html=1;fillColor=#fff2cc;strokeColor=#d6b656;strokeWidth=2;" vertex="1" parent="FjL0w2o_nrzGvol7VrGl-12">
          <mxGeometry x="70" y="119" width="120" height="120" as="geometry" />
        </mxCell>
        <mxCell id="OsKB0G3abVHmZugpBjLQ-12" value="" style="rounded=0;whiteSpace=wrap;html=1;fillColor=#fff2cc;strokeColor=#d6b656;strokeWidth=2;" vertex="1" parent="FjL0w2o_nrzGvol7VrGl-12">
          <mxGeometry x="210" y="119" width="120" height="120" as="geometry" />
        </mxCell>
        <mxCell id="OsKB0G3abVHmZugpBjLQ-13" value="" style="image;aspect=fixed;html=1;points=[];align=center;fontSize=12;image=img/lib/azure2/networking/Subnet.svg;strokeWidth=2;" vertex="1" parent="FjL0w2o_nrzGvol7VrGl-12">
          <mxGeometry x="70" y="119" width="34.6" height="20.72" as="geometry" />
        </mxCell>
        <mxCell id="OsKB0G3abVHmZugpBjLQ-14" value="" style="image;aspect=fixed;html=1;points=[];align=center;fontSize=12;image=img/lib/azure2/networking/Subnet.svg;strokeWidth=2;" vertex="1" parent="FjL0w2o_nrzGvol7VrGl-12">
          <mxGeometry x="210" y="119" width="34.6" height="20.72" as="geometry" />
        </mxCell>
        <mxCell id="OsKB0G3abVHmZugpBjLQ-16" value="&lt;font style=&quot;font-size: 6px;&quot;&gt;Databricks Host Subnet&lt;/font&gt;" style="text;html=1;align=left;verticalAlign=middle;whiteSpace=wrap;rounded=0;strokeWidth=2;" vertex="1" parent="FjL0w2o_nrzGvol7VrGl-12">
          <mxGeometry x="104.6" y="118.08" width="85.4" height="21.64" as="geometry" />
        </mxCell>
        <mxCell id="OsKB0G3abVHmZugpBjLQ-17" value="&lt;font style=&quot;font-size: 6px;&quot;&gt;Databricks Container Subnet&lt;/font&gt;" style="text;html=1;align=left;verticalAlign=middle;whiteSpace=wrap;rounded=0;strokeWidth=2;" vertex="1" parent="FjL0w2o_nrzGvol7VrGl-12">
          <mxGeometry x="244.60000000000002" y="118.07999999999998" width="85.4" height="21.64" as="geometry" />
        </mxCell>
        <mxCell id="OsKB0G3abVHmZugpBjLQ-20" value="Databricks Cluster" style="image;aspect=fixed;html=1;points=[];align=center;fontSize=12;image=img/lib/azure2/compute/Virtual_Machine.svg;strokeWidth=2;labelBackgroundColor=none;" vertex="1" parent="FjL0w2o_nrzGvol7VrGl-12">
          <mxGeometry x="180.5" y="162.73000000000002" width="39" height="36.17" as="geometry" />
        </mxCell>
        <mxCell id="OsKB0G3abVHmZugpBjLQ-21" value="Azure Databricks Workspace" style="image;aspect=fixed;html=1;points=[];align=center;fontSize=12;image=img/lib/azure2/analytics/Azure_Databricks.svg;labelBackgroundColor=none;" vertex="1" parent="FjL0w2o_nrzGvol7VrGl-12">
          <mxGeometry x="183.60000000000002" y="10.000000000000028" width="32.8" height="35.52" as="geometry" />
        </mxCell>
        <mxCell id="FjL0w2o_nrzGvol7VrGl-21" value="VPN" style="text;html=1;align=center;verticalAlign=middle;resizable=0;points=[];autosize=1;strokeColor=none;fillColor=none;" parent="1" vertex="1">
          <mxGeometry x="555" y="295" width="50" height="30" as="geometry" />
        </mxCell>
        <mxCell id="FjL0w2o_nrzGvol7VrGl-20" value="" style="shape=flexArrow;endArrow=classic;startArrow=classic;html=1;rounded=0;entryX=-0.033;entryY=0.525;entryDx=0;entryDy=0;entryPerimeter=0;" parent="1" source="FjL0w2o_nrzGvol7VrGl-7" target="FjL0w2o_nrzGvol7VrGl-19" edge="1">
          <mxGeometry width="100" height="100" relative="1" as="geometry">
            <mxPoint x="520" y="470" as="sourcePoint" />
            <mxPoint x="620" y="370" as="targetPoint" />
          </mxGeometry>
        </mxCell>
        <mxCell id="OsKB0G3abVHmZugpBjLQ-3" value="Internet" style="outlineConnect=0;dashed=0;verticalLabelPosition=bottom;verticalAlign=top;align=center;html=1;shape=mxgraph.aws3.internet_2;fillColor=#D2D3D3;gradientColor=none;" vertex="1" parent="1">
          <mxGeometry x="560" y="325" width="40" height="30" as="geometry" />
        </mxCell>
      </root>
    </mxGraphModel>
  </diagram>
</mxfile>
